{
    "asset" : {
        "generator" : "Khronos glTF Blender I/O v1.1.46",
        "version" : "2.0"
    },
    "scene" : 0,
    "scenes" : [
        {
            "name" : "Scene",
            "nodes" : [
                0
            ]
        }
    ],
    "nodes" : [
        {
            "mesh" : 0,
            "name" : "Circle",
            "rotation" : [
                1,
                0,
                0,
                -1.6292068494294654e-07
            ]
        }
    ],
    "materials" : [
        {
            "doubleSided" : false,
            "name" : "DiffuseDarkGrey",
            "pbrMetallicRoughness" : {}
        }
    ],
    "meshes" : [
        {
            "name" : "Circle",
            "primitives" : [
                {
                    "attributes" : {
                        "POSITION" : 0,
                        "NORMAL" : 1,
                        "TEXCOORD_0" : 2
                    },
                    "indices" : 3,
                    "material" : 0
                }
            ]
        }
    ],
    "accessors" : [
        {
            "bufferView" : 0,
            "componentType" : 5126,
            "count" : 2434,
            "max" : [
                71.24069213867188,
                8.959934348240495e-05,
                71.24069213867188
            ],
            "min" : [
                -71.24066925048828,
                -56.648719787597656,
                -71.24068450927734
            ],
            "type" : "VEC3"
        },
        {
            "bufferView" : 1,
            "componentType" : 5126,
            "count" : 2434,
            "type" : "VEC3"
        },
        {
            "bufferView" : 2,
            "componentType" : 5126,
            "count" : 2434,
            "type" : "VEC2"
        },
        {
            "bufferView" : 3,
            "componentType" : 5123,
            "count" : 14208,
            "type" : "SCALAR"
        }
    ],
    "bufferViews" : [
        {
            "buffer" : 0,
            "byteLength" : 29208,
            "byteOffset" : 0
        },
        {
            "buffer" : 0,
            "byteLength" : 29208,
            "byteOffset" : 29208
        },
        {
            "buffer" : 0,
            "byteLength" : 19472,
            "byteOffset" : 58416
        },
        {
            "buffer" : 0,
            "byteLength" : 28416,
            "byteOffset" : 77888
        }
    ],
    "buffers" : [
        {
            "byteLength" : 106304,
            "uri" : "data:application/octet-stream;base64,"
        }
    ]
}
