{
    "asset" : {
        "generator" : "Khronos glTF Blender I/O v1.1.46",
        "version" : "2.0"
    },
    "scene" : 0,
    "scenes" : [
        {
            "name" : "Scene",
            "nodes" : [
                0
            ]
        }
    ],
    "nodes" : [
        {
            "mesh" : 0,
            "name" : "Obj.005"
        }
    ],
    "materials" : [
        {
            "doubleSided" : true,
            "emissiveFactor" : [
                0,
                0,
                0
            ],
            "name" : "CREME-TURBOSQUID-002_TEX",
            "pbrMetallicRoughness" : {
                "baseColorTexture" : {
                    "index" : 0,
                    "texCoord" : 0
                },
                "metallicFactor" : 0,
                "roughnessFactor" : 0.25
            }
        },
        {
            "doubleSided" : true,
            "emissiveFactor" : [
                0,
                0,
                0
            ],
            "name" : "CREME-TURBOSQUID-002_BASE",
            "pbrMetallicRoughness" : {
                "baseColorFactor" : [
                    0.7912977933883667,
                    0.7912982106208801,
                    0.7912981510162354,
                    1
                ],
                "metallicFactor" : 0,
                "roughnessFactor" : 0.25
            }
        }
    ],
    "meshes" : [
        {
            "name" : "Obj.005",
            "primitives" : [
                {
                    "attributes" : {
                        "POSITION" : 0,
                        "NORMAL" : 1,
                        "TEXCOORD_0" : 2
                    },
                    "indices" : 3,
                    "material" : 0
                },
                {
                    "attributes" : {
                        "POSITION" : 4,
                        "NORMAL" : 5,
                        "TEXCOORD_0" : 6
                    },
                    "indices" : 7,
                    "material" : 1
                }
            ]
        }
    ],
    "textures" : [
        {
            "source" : 0
        }
    ],
    "images" : [
        {
            "bufferView" : 4,
            "mimeType" : "image/png",
            "name" : "CREME-TURBOSQUID-ID002_v1"
        }
    ],
    "accessors" : [
        {
            "bufferView" : 0,
            "componentType" : 5126,
            "count" : 451,
            "max" : [
                0.023459717631340027,
                0.15248772501945496,
                0.014558334834873676
            ],
            "min" : [
                -0.02345985919237137,
                0.0212691817432642,
                -0.01455547846853733
            ],
            "type" : "VEC3"
        },
        {
            "bufferView" : 1,
            "componentType" : 5126,
            "count" : 451,
            "type" : "VEC3"
        },
        {
            "bufferView" : 2,
            "componentType" : 5126,
            "count" : 451,
            "type" : "VEC2"
        },
        {
            "bufferView" : 3,
            "componentType" : 5123,
            "count" : 2400,
            "type" : "SCALAR"
        },
        {
            "bufferView" : 5,
            "componentType" : 5126,
            "count" : 6013,
            "max" : [
                0.023468945175409317,
                0.15746837854385376,
                0.014558334834873676
            ],
            "min" : [
                -0.02346915937960148,
                3.6582478060154244e-05,
                -0.01455547846853733
            ],
            "type" : "VEC3"
        },
        {
            "bufferView" : 6,
            "componentType" : 5126,
            "count" : 6013,
            "type" : "VEC3"
        },
        {
            "bufferView" : 7,
            "componentType" : 5126,
            "count" : 6013,
            "type" : "VEC2"
        },
        {
            "bufferView" : 8,
            "componentType" : 5123,
            "count" : 19050,
            "type" : "SCALAR"
        }
    ],
    "bufferViews" : [
        {
            "buffer" : 0,
            "byteLength" : 5412,
            "byteOffset" : 0
        },
        {
            "buffer" : 0,
            "byteLength" : 5412,
            "byteOffset" : 5412
        },
        {
            "buffer" : 0,
            "byteLength" : 3608,
            "byteOffset" : 10824
        },
        {
            "buffer" : 0,
            "byteLength" : 4800,
            "byteOffset" : 14432
        },
        {
            "buffer" : 0,
            "byteLength" : 283411,
            "byteOffset" : 19232
        },
        {
            "buffer" : 0,
            "byteLength" : 72156,
            "byteOffset" : 302644
        },
        {
            "buffer" : 0,
            "byteLength" : 72156,
            "byteOffset" : 374800
        },
        {
            "buffer" : 0,
            "byteLength" : 48104,
            "byteOffset" : 446956
        },
        {
            "buffer" : 0,
            "byteLength" : 38100,
            "byteOffset" : 495060
        }
    ],
    "buffers" : [
        {
            "byteLength" : 533160,
            "uri" : "data:application/octet-stream;base64,"
        }
    ]
}
