{
    "asset" : {
        "generator" : "Khronos glTF Blender I/O v1.1.46",
        "version" : "2.0"
    },
    "scene" : 0,
    "scenes" : [
        {
            "name" : "Scene",
            "nodes" : [
                0
            ]
        }
    ],
    "nodes" : [
        {
            "mesh" : 0,
            "name" : "Obj.003"
        }
    ],
    "materials" : [
        {
            "doubleSided" : true,
            "emissiveFactor" : [
                0,
                0,
                0
            ],
            "name" : "SOAP-TURBOSQUID-004_TEX",
            "pbrMetallicRoughness" : {
                "baseColorTexture" : {
                    "index" : 0,
                    "texCoord" : 0
                },
                "metallicFactor" : 0,
                "roughnessFactor" : 0.25
            }
        },
        {
            "doubleSided" : true,
            "emissiveFactor" : [
                0,
                0,
                0
            ],
            "name" : "SOAP-TURBOSQUID-004_BASE",
            "pbrMetallicRoughness" : {
                "baseColorFactor" : [
                    0.7912977933883667,
                    0.7912982106208801,
                    0.7912981510162354,
                    1
                ],
                "metallicFactor" : 0,
                "roughnessFactor" : 0.25
            }
        }
    ],
    "meshes" : [
        {
            "name" : "Obj.003",
            "primitives" : [
                {
                    "attributes" : {
                        "POSITION" : 0,
                        "NORMAL" : 1,
                        "TEXCOORD_0" : 2
                    },
                    "indices" : 3,
                    "material" : 0
                },
                {
                    "attributes" : {
                        "POSITION" : 4,
                        "NORMAL" : 5,
                        "TEXCOORD_0" : 6
                    },
                    "indices" : 7,
                    "material" : 1
                }
            ]
        }
    ],
    "textures" : [
        {
            "source" : 0
        }
    ],
    "images" : [
        {
            "bufferView" : 4,
            "mimeType" : "image/png",
            "name" : "SOAP-TURBOSQUID-ID004_v1"
        }
    ],
    "accessors" : [
        {
            "bufferView" : 0,
            "componentType" : 5126,
            "count" : 638,
            "max" : [
                0.027847692370414734,
                0.0844242051243782,
                0.02829582989215851
            ],
            "min" : [
                -0.028741078451275826,
                0.002003125147894025,
                -0.028292950242757797
            ],
            "type" : "VEC3"
        },
        {
            "bufferView" : 1,
            "componentType" : 5126,
            "count" : 638,
            "type" : "VEC3"
        },
        {
            "bufferView" : 2,
            "componentType" : 5126,
            "count" : 638,
            "type" : "VEC2"
        },
        {
            "bufferView" : 3,
            "componentType" : 5123,
            "count" : 3528,
            "type" : "SCALAR"
        },
        {
            "bufferView" : 5,
            "componentType" : 5126,
            "count" : 5508,
            "max" : [
                0.029213782399892807,
                0.11541815102100372,
                0.02352205105125904
            ],
            "min" : [
                -0.023967331275343895,
                0.00010191281762672588,
                -0.023519225418567657
            ],
            "type" : "VEC3"
        },
        {
            "bufferView" : 6,
            "componentType" : 5126,
            "count" : 5508,
            "type" : "VEC3"
        },
        {
            "bufferView" : 7,
            "componentType" : 5126,
            "count" : 5508,
            "type" : "VEC2"
        },
        {
            "bufferView" : 8,
            "componentType" : 5123,
            "count" : 28512,
            "type" : "SCALAR"
        }
    ],
    "bufferViews" : [
        {
            "buffer" : 0,
            "byteLength" : 7656,
            "byteOffset" : 0
        },
        {
            "buffer" : 0,
            "byteLength" : 7656,
            "byteOffset" : 7656
        },
        {
            "buffer" : 0,
            "byteLength" : 5104,
            "byteOffset" : 15312
        },
        {
            "buffer" : 0,
            "byteLength" : 7056,
            "byteOffset" : 20416
        },
        {
            "buffer" : 0,
            "byteLength" : 288365,
            "byteOffset" : 27472
        },
        {
            "buffer" : 0,
            "byteLength" : 66096,
            "byteOffset" : 315840
        },
        {
            "buffer" : 0,
            "byteLength" : 66096,
            "byteOffset" : 381936
        },
        {
            "buffer" : 0,
            "byteLength" : 44064,
            "byteOffset" : 448032
        },
        {
            "buffer" : 0,
            "byteLength" : 57024,
            "byteOffset" : 492096
        }
    ],
    "buffers" : [
        {
            "byteLength" : 549120,
            "uri" : "data:application/octet-stream;base64,"
        }
    ]
}
