{
    "asset" : {
        "generator" : "Khronos glTF Blender I/O v1.1.46",
        "version" : "2.0"
    },
    "scene" : 0,
    "scenes" : [
        {
            "name" : "Scene",
            "nodes" : [
                0
            ]
        }
    ],
    "nodes" : [
        {
            "mesh" : 0,
            "name" : "Obj.007"
        }
    ],
    "materials" : [
        {
            "doubleSided" : true,
            "emissiveFactor" : [
                0,
                0,
                0
            ],
            "name" : "SOAP-TURBOSQUID-002_TEX",
            "pbrMetallicRoughness" : {
                "baseColorTexture" : {
                    "index" : 0,
                    "texCoord" : 0
                },
                "metallicFactor" : 0,
                "roughnessFactor" : 0.25
            }
        },
        {
            "doubleSided" : true,
            "emissiveFactor" : [
                0,
                0,
                0
            ],
            "name" : "SOAP-TURBOSQUID-002_BASE",
            "pbrMetallicRoughness" : {
                "baseColorFactor" : [
                    0.7912977933883667,
                    0.7912982106208801,
                    0.7912981510162354,
                    1
                ],
                "metallicFactor" : 0,
                "roughnessFactor" : 0.25
            }
        }
    ],
    "meshes" : [
        {
            "name" : "Obj.008",
            "primitives" : [
                {
                    "attributes" : {
                        "POSITION" : 0,
                        "NORMAL" : 1,
                        "TEXCOORD_0" : 2
                    },
                    "indices" : 3,
                    "material" : 0
                },
                {
                    "attributes" : {
                        "POSITION" : 4,
                        "NORMAL" : 5,
                        "TEXCOORD_0" : 6
                    },
                    "indices" : 7,
                    "material" : 1
                }
            ]
        }
    ],
    "textures" : [
        {
            "source" : 0
        }
    ],
    "images" : [
        {
            "bufferView" : 4,
            "mimeType" : "image/png",
            "name" : "SOAP-TURBOSQUID-ID002_v1"
        }
    ],
    "accessors" : [
        {
            "bufferView" : 0,
            "componentType" : 5126,
            "count" : 609,
            "max" : [
                0.034446489065885544,
                0.14597374200820923,
                0.03484185039997101
            ],
            "min" : [
                -0.03528624773025513,
                0.003939485643059015,
                -0.03489100560545921
            ],
            "type" : "VEC3"
        },
        {
            "bufferView" : 1,
            "componentType" : 5126,
            "count" : 609,
            "type" : "VEC3"
        },
        {
            "bufferView" : 2,
            "componentType" : 5126,
            "count" : 609,
            "type" : "VEC2"
        },
        {
            "bufferView" : 3,
            "componentType" : 5123,
            "count" : 3360,
            "type" : "SCALAR"
        },
        {
            "bufferView" : 5,
            "componentType" : 5126,
            "count" : 5528,
            "max" : [
                0.03612379729747772,
                0.19604237377643585,
                0.0304278414696455
            ],
            "min" : [
                -0.03087221086025238,
                5.706217052647844e-05,
                -0.030476972460746765
            ],
            "type" : "VEC3"
        },
        {
            "bufferView" : 6,
            "componentType" : 5126,
            "count" : 5528,
            "type" : "VEC3"
        },
        {
            "bufferView" : 7,
            "componentType" : 5126,
            "count" : 5528,
            "type" : "VEC2"
        },
        {
            "bufferView" : 8,
            "componentType" : 5123,
            "count" : 28680,
            "type" : "SCALAR"
        }
    ],
    "bufferViews" : [
        {
            "buffer" : 0,
            "byteLength" : 7308,
            "byteOffset" : 0
        },
        {
            "buffer" : 0,
            "byteLength" : 7308,
            "byteOffset" : 7308
        },
        {
            "buffer" : 0,
            "byteLength" : 4872,
            "byteOffset" : 14616
        },
        {
            "buffer" : 0,
            "byteLength" : 6720,
            "byteOffset" : 19488
        },
        {
            "buffer" : 0,
            "byteLength" : 288450,
            "byteOffset" : 26208
        },
        {
            "buffer" : 0,
            "byteLength" : 66336,
            "byteOffset" : 314660
        },
        {
            "buffer" : 0,
            "byteLength" : 66336,
            "byteOffset" : 380996
        },
        {
            "buffer" : 0,
            "byteLength" : 44224,
            "byteOffset" : 447332
        },
        {
            "buffer" : 0,
            "byteLength" : 57360,
            "byteOffset" : 491556
        }
    ],
    "buffers" : [
        {
            "byteLength" : 548916,
            "uri" : "data:application/octet-stream;base64,"
        }
    ]
}
