{
    "asset" : {
        "generator" : "Khronos glTF Blender I/O v1.1.46",
        "version" : "2.0"
    },
    "scene" : 0,
    "scenes" : [
        {
            "name" : "Scene",
            "nodes" : [
                0
            ]
        }
    ],
    "nodes" : [
        {
            "mesh" : 0,
            "name" : "Obj.006"
        }
    ],
    "materials" : [
        {
            "doubleSided" : true,
            "emissiveFactor" : [
                0,
                0,
                0
            ],
            "name" : "SOAP-TURBOSQUID-003_BASE",
            "pbrMetallicRoughness" : {
                "baseColorFactor" : [
                    0.7912977933883667,
                    0.7912982106208801,
                    0.7912981510162354,
                    1
                ],
                "metallicFactor" : 0,
                "roughnessFactor" : 0.25
            }
        },
        {
            "doubleSided" : true,
            "emissiveFactor" : [
                0,
                0,
                0
            ],
            "name" : "SOAP-TURBOSQUID-003_TEX",
            "pbrMetallicRoughness" : {
                "baseColorTexture" : {
                    "index" : 0,
                    "texCoord" : 0
                },
                "metallicFactor" : 0,
                "roughnessFactor" : 0.25
            }
        }
    ],
    "meshes" : [
        {
            "name" : "Obj.006",
            "primitives" : [
                {
                    "attributes" : {
                        "POSITION" : 0,
                        "NORMAL" : 1,
                        "TEXCOORD_0" : 2
                    },
                    "indices" : 3,
                    "material" : 0
                },
                {
                    "attributes" : {
                        "POSITION" : 4,
                        "NORMAL" : 5,
                        "TEXCOORD_0" : 6
                    },
                    "indices" : 7,
                    "material" : 1
                }
            ]
        }
    ],
    "textures" : [
        {
            "source" : 0
        }
    ],
    "images" : [
        {
            "bufferView" : 8,
            "mimeType" : "image/png",
            "name" : "SOAP-TURBOSQUID-ID003_v1"
        }
    ],
    "accessors" : [
        {
            "bufferView" : 0,
            "componentType" : 5126,
            "count" : 3136,
            "max" : [
                0.037784334272146225,
                0.19872638583183289,
                0.03772761672735214
            ],
            "min" : [
                -0.03779301047325134,
                6.322774424916133e-05,
                -0.03776402026414871
            ],
            "type" : "VEC3"
        },
        {
            "bufferView" : 1,
            "componentType" : 5126,
            "count" : 3136,
            "type" : "VEC3"
        },
        {
            "bufferView" : 2,
            "componentType" : 5126,
            "count" : 3136,
            "type" : "VEC2"
        },
        {
            "bufferView" : 3,
            "componentType" : 5123,
            "count" : 13908,
            "type" : "SCALAR"
        },
        {
            "bufferView" : 4,
            "componentType" : 5126,
            "count" : 621,
            "max" : [
                0.037784334272146225,
                0.1633853018283844,
                0.037727631628513336
            ],
            "min" : [
                -0.03779301047325134,
                0.002985667670145631,
                -0.03776402026414871
            ],
            "type" : "VEC3"
        },
        {
            "bufferView" : 5,
            "componentType" : 5126,
            "count" : 621,
            "type" : "VEC3"
        },
        {
            "bufferView" : 6,
            "componentType" : 5126,
            "count" : 621,
            "type" : "VEC2"
        },
        {
            "bufferView" : 7,
            "componentType" : 5123,
            "count" : 3432,
            "type" : "SCALAR"
        }
    ],
    "bufferViews" : [
        {
            "buffer" : 0,
            "byteLength" : 37632,
            "byteOffset" : 0
        },
        {
            "buffer" : 0,
            "byteLength" : 37632,
            "byteOffset" : 37632
        },
        {
            "buffer" : 0,
            "byteLength" : 25088,
            "byteOffset" : 75264
        },
        {
            "buffer" : 0,
            "byteLength" : 27816,
            "byteOffset" : 100352
        },
        {
            "buffer" : 0,
            "byteLength" : 7452,
            "byteOffset" : 128168
        },
        {
            "buffer" : 0,
            "byteLength" : 7452,
            "byteOffset" : 135620
        },
        {
            "buffer" : 0,
            "byteLength" : 4968,
            "byteOffset" : 143072
        },
        {
            "buffer" : 0,
            "byteLength" : 6864,
            "byteOffset" : 148040
        },
        {
            "buffer" : 0,
            "byteLength" : 291374,
            "byteOffset" : 154904
        }
    ],
    "buffers" : [
        {
            "byteLength" : 446280,
            "uri" : "data:application/octet-stream;base64,"
        }
    ]
}
