{
    "asset" : {
        "generator" : "Khronos glTF Blender I/O v1.1.46",
        "version" : "2.0"
    },
    "scene" : 0,
    "scenes" : [
        {
            "name" : "Scene",
            "nodes" : [
                0
            ]
        }
    ],
    "nodes" : [
        {
            "mesh" : 0,
            "name" : "Circle.001",
            "translation" : [
                0,
                2.502033021301031e-05,
                0
            ]
        }
    ],
    "materials" : [
        {
            "doubleSided" : true,
            "emissiveFactor" : [
                0,
                0,
                0
            ],
            "name" : "TANDPASTA-PRODENT-001_TEX",
            "pbrMetallicRoughness" : {
                "baseColorTexture" : {
                    "index" : 0,
                    "texCoord" : 0
                },
                "metallicFactor" : 0,
                "roughnessFactor" : 0.20000000298023224
            }
        },
        {
            "doubleSided" : true,
            "emissiveFactor" : [
                0,
                0,
                0
            ],
            "name" : "TANDPASTA-PRODENT-001_BASE",
            "pbrMetallicRoughness" : {
                "baseColorFactor" : [
                    0.7912977933883667,
                    0.7912982106208801,
                    0.7912981510162354,
                    1
                ],
                "metallicFactor" : 0,
                "roughnessFactor" : 0.20000000298023224
            }
        }
    ],
    "meshes" : [
        {
            "name" : "Circle.003",
            "primitives" : [
                {
                    "attributes" : {
                        "POSITION" : 0,
                        "NORMAL" : 1,
                        "TEXCOORD_0" : 2
                    },
                    "indices" : 3,
                    "material" : 0
                },
                {
                    "attributes" : {
                        "POSITION" : 4,
                        "NORMAL" : 5,
                        "TEXCOORD_0" : 6
                    },
                    "indices" : 7,
                    "material" : 1
                }
            ]
        }
    ],
    "textures" : [
        {
            "source" : 0
        }
    ],
    "images" : [
        {
            "bufferView" : 4,
            "mimeType" : "image/png",
            "name" : "TANDPASTA-AQUAFRESH-ID002_v1"
        }
    ],
    "accessors" : [
        {
            "bufferView" : 0,
            "componentType" : 5126,
            "count" : 460,
            "max" : [
                0.02698604203760624,
                0.14746932685375214,
                0.017385778948664665
            ],
            "min" : [
                -0.026986032724380493,
                0.023824330419301987,
                -0.017428221181035042
            ],
            "type" : "VEC3"
        },
        {
            "bufferView" : 1,
            "componentType" : 5126,
            "count" : 460,
            "type" : "VEC3"
        },
        {
            "bufferView" : 2,
            "componentType" : 5126,
            "count" : 460,
            "type" : "VEC2"
        },
        {
            "bufferView" : 3,
            "componentType" : 5123,
            "count" : 2430,
            "type" : "SCALAR"
        },
        {
            "bufferView" : 5,
            "componentType" : 5126,
            "count" : 1631,
            "max" : [
                0.026992442086338997,
                0.15295957028865814,
                0.017385778948664665
            ],
            "min" : [
                -0.02699243277311325,
                0,
                -0.017428221181035042
            ],
            "type" : "VEC3"
        },
        {
            "bufferView" : 6,
            "componentType" : 5126,
            "count" : 1631,
            "type" : "VEC3"
        },
        {
            "bufferView" : 7,
            "componentType" : 5126,
            "count" : 1631,
            "type" : "VEC2"
        },
        {
            "bufferView" : 8,
            "componentType" : 5123,
            "count" : 8961,
            "type" : "SCALAR"
        }
    ],
    "bufferViews" : [
        {
            "buffer" : 0,
            "byteLength" : 5520,
            "byteOffset" : 0
        },
        {
            "buffer" : 0,
            "byteLength" : 5520,
            "byteOffset" : 5520
        },
        {
            "buffer" : 0,
            "byteLength" : 3680,
            "byteOffset" : 11040
        },
        {
            "buffer" : 0,
            "byteLength" : 4860,
            "byteOffset" : 14720
        },
        {
            "buffer" : 0,
            "byteLength" : 290252,
            "byteOffset" : 19580
        },
        {
            "buffer" : 0,
            "byteLength" : 19572,
            "byteOffset" : 309832
        },
        {
            "buffer" : 0,
            "byteLength" : 19572,
            "byteOffset" : 329404
        },
        {
            "buffer" : 0,
            "byteLength" : 13048,
            "byteOffset" : 348976
        },
        {
            "buffer" : 0,
            "byteLength" : 17922,
            "byteOffset" : 362024
        }
    ],
    "buffers" : [
        {
            "byteLength" : 379948,
            "uri" : "data:application/octet-stream;base64,"
        }
    ]
}
