{
    "asset" : {
        "generator" : "Khronos glTF Blender I/O v1.1.46",
        "version" : "2.0"
    },
    "scene" : 0,
    "scenes" : [
        {
            "name" : "Scene",
            "nodes" : [
                0
            ]
        }
    ],
    "nodes" : [
        {
            "mesh" : 0,
            "name" : "Obj.004"
        }
    ],
    "materials" : [
        {
            "doubleSided" : true,
            "emissiveFactor" : [
                0,
                0,
                0
            ],
            "name" : "TANDPASTA-TURBOSQUID-003_TEX",
            "pbrMetallicRoughness" : {
                "baseColorTexture" : {
                    "index" : 0,
                    "texCoord" : 0
                },
                "metallicFactor" : 0,
                "roughnessFactor" : 0.25
            }
        },
        {
            "doubleSided" : true,
            "emissiveFactor" : [
                0,
                0,
                0
            ],
            "name" : "TANDPASTA-TURBOSQUID-003_BASE",
            "pbrMetallicRoughness" : {
                "baseColorFactor" : [
                    0.7912977933883667,
                    0.7912982106208801,
                    0.7912981510162354,
                    1
                ],
                "metallicFactor" : 0,
                "roughnessFactor" : 0.25
            }
        }
    ],
    "meshes" : [
        {
            "name" : "Obj.004",
            "primitives" : [
                {
                    "attributes" : {
                        "POSITION" : 0,
                        "NORMAL" : 1,
                        "TEXCOORD_0" : 2
                    },
                    "indices" : 3,
                    "material" : 0
                },
                {
                    "attributes" : {
                        "POSITION" : 4,
                        "NORMAL" : 5,
                        "TEXCOORD_0" : 6
                    },
                    "indices" : 7,
                    "material" : 1
                }
            ]
        }
    ],
    "textures" : [
        {
            "source" : 0
        }
    ],
    "images" : [
        {
            "bufferView" : 4,
            "mimeType" : "image/png",
            "name" : "TANDPASTA-TURBOSQUID-ID003_v1"
        }
    ],
    "accessors" : [
        {
            "bufferView" : 0,
            "componentType" : 5126,
            "count" : 539,
            "max" : [
                0.029290776699781418,
                0.1488821655511856,
                0.021920181810855865
            ],
            "min" : [
                -0.02928166463971138,
                0.025184178724884987,
                -0.021875809878110886
            ],
            "type" : "VEC3"
        },
        {
            "bufferView" : 1,
            "componentType" : 5126,
            "count" : 539,
            "type" : "VEC3"
        },
        {
            "bufferView" : 2,
            "componentType" : 5126,
            "count" : 539,
            "type" : "VEC2"
        },
        {
            "bufferView" : 3,
            "componentType" : 5123,
            "count" : 2880,
            "type" : "SCALAR"
        },
        {
            "bufferView" : 5,
            "componentType" : 5126,
            "count" : 5798,
            "max" : [
                0.029381439089775085,
                0.15535709261894226,
                0.0196106918156147
            ],
            "min" : [
                -0.029372308403253555,
                8.586245530750602e-05,
                -0.01956627145409584
            ],
            "type" : "VEC3"
        },
        {
            "bufferView" : 6,
            "componentType" : 5126,
            "count" : 5798,
            "type" : "VEC3"
        },
        {
            "bufferView" : 7,
            "componentType" : 5126,
            "count" : 5798,
            "type" : "VEC2"
        },
        {
            "bufferView" : 8,
            "componentType" : 5123,
            "count" : 33516,
            "type" : "SCALAR"
        }
    ],
    "bufferViews" : [
        {
            "buffer" : 0,
            "byteLength" : 6468,
            "byteOffset" : 0
        },
        {
            "buffer" : 0,
            "byteLength" : 6468,
            "byteOffset" : 6468
        },
        {
            "buffer" : 0,
            "byteLength" : 4312,
            "byteOffset" : 12936
        },
        {
            "buffer" : 0,
            "byteLength" : 5760,
            "byteOffset" : 17248
        },
        {
            "buffer" : 0,
            "byteLength" : 342350,
            "byteOffset" : 23008
        },
        {
            "buffer" : 0,
            "byteLength" : 69576,
            "byteOffset" : 365360
        },
        {
            "buffer" : 0,
            "byteLength" : 69576,
            "byteOffset" : 434936
        },
        {
            "buffer" : 0,
            "byteLength" : 46384,
            "byteOffset" : 504512
        },
        {
            "buffer" : 0,
            "byteLength" : 67032,
            "byteOffset" : 550896
        }
    ],
    "buffers" : [
        {
            "byteLength" : 617928,
            "uri" : "data:application/octet-stream;base64,"
        }
    ]
}
