{
    "asset" : {
        "generator" : "Khronos glTF Blender I/O v1.1.46",
        "version" : "2.0"
    },
    "scene" : 0,
    "scenes" : [
        {
            "name" : "Scene",
            "nodes" : [
                0
            ]
        }
    ],
    "nodes" : [
        {
            "mesh" : 0,
            "name" : "Circle"
        }
    ],
    "materials" : [
        {
            "doubleSided" : true,
            "emissiveFactor" : [
                0,
                0,
                0
            ],
            "name" : "ToothPaste Dop",
            "pbrMetallicRoughness" : {
                "baseColorFactor" : [
                    1,
                    1,
                    1,
                    1
                ],
                "metallicFactor" : 0,
                "metallicRoughnessTexture" : {
                    "index" : 0,
                    "texCoord" : 0
                }
            }
        },
        {
            "doubleSided" : true,
            "emissiveFactor" : [
                0,
                0,
                0
            ],
            "name" : "ToothPaste_TexBody",
            "pbrMetallicRoughness" : {
                "baseColorTexture" : {
                    "index" : 1,
                    "texCoord" : 0
                },
                "metallicFactor" : 0,
                "metallicRoughnessTexture" : {
                    "index" : 2,
                    "texCoord" : 0
                }
            }
        }
    ],
    "meshes" : [
        {
            "name" : "Circle",
            "primitives" : [
                {
                    "attributes" : {
                        "POSITION" : 0,
                        "NORMAL" : 1,
                        "TEXCOORD_0" : 2
                    },
                    "indices" : 3,
                    "material" : 0
                },
                {
                    "attributes" : {
                        "POSITION" : 4,
                        "NORMAL" : 5,
                        "TEXCOORD_0" : 6
                    },
                    "indices" : 7,
                    "material" : 1
                }
            ]
        }
    ],
    "textures" : [
        {
            "source" : 0
        },
        {
            "source" : 1
        },
        {
            "source" : 2
        }
    ],
    "images" : [
        {
            "bufferView" : 4,
            "mimeType" : "image/png",
            "name" : "Roughness_Texture"
        },
        {
            "bufferView" : 9,
            "mimeType" : "image/jpeg",
            "name" : "Diffuse_UV_Export"
        },
        {
            "bufferView" : 10,
            "mimeType" : "image/jpeg",
            "name" : "Toothpaste_UV_Export"
        }
    ],
    "accessors" : [
        {
            "bufferView" : 0,
            "componentType" : 5126,
            "count" : 1424,
            "max" : [
                0.019369108602404594,
                0.03037617728114128,
                0.019369110465049744
            ],
            "min" : [
                -0.019369110465049744,
                2.2835778509033844e-05,
                -0.019369112327694893
            ],
            "type" : "VEC3"
        },
        {
            "bufferView" : 1,
            "componentType" : 5126,
            "count" : 1424,
            "type" : "VEC3"
        },
        {
            "bufferView" : 2,
            "componentType" : 5126,
            "count" : 1424,
            "type" : "VEC2"
        },
        {
            "bufferView" : 3,
            "componentType" : 5123,
            "count" : 7488,
            "type" : "SCALAR"
        },
        {
            "bufferView" : 5,
            "componentType" : 5126,
            "count" : 1590,
            "max" : [
                0.03344741463661194,
                0.1603326052427292,
                0.01897674985229969
            ],
            "min" : [
                -0.03344741463661194,
                0.03037617728114128,
                -0.01897675357758999
            ],
            "type" : "VEC3"
        },
        {
            "bufferView" : 6,
            "componentType" : 5126,
            "count" : 1590,
            "type" : "VEC3"
        },
        {
            "bufferView" : 7,
            "componentType" : 5126,
            "count" : 1590,
            "type" : "VEC2"
        },
        {
            "bufferView" : 8,
            "componentType" : 5123,
            "count" : 8436,
            "type" : "SCALAR"
        }
    ],
    "bufferViews" : [
        {
            "buffer" : 0,
            "byteLength" : 17088,
            "byteOffset" : 0
        },
        {
            "buffer" : 0,
            "byteLength" : 17088,
            "byteOffset" : 17088
        },
        {
            "buffer" : 0,
            "byteLength" : 11392,
            "byteOffset" : 34176
        },
        {
            "buffer" : 0,
            "byteLength" : 14976,
            "byteOffset" : 45568
        },
        {
            "buffer" : 0,
            "byteLength" : 230056,
            "byteOffset" : 60544
        },
        {
            "buffer" : 0,
            "byteLength" : 19080,
            "byteOffset" : 290600
        },
        {
            "buffer" : 0,
            "byteLength" : 19080,
            "byteOffset" : 309680
        },
        {
            "buffer" : 0,
            "byteLength" : 12720,
            "byteOffset" : 328760
        },
        {
            "buffer" : 0,
            "byteLength" : 16872,
            "byteOffset" : 341480
        },
        {
            "buffer" : 0,
            "byteLength" : 918623,
            "byteOffset" : 358352
        },
        {
            "buffer" : 0,
            "byteLength" : 262788,
            "byteOffset" : 1276976
        }
    ],
    "buffers" : [
        {
            "byteLength" : 1539764,
            "uri" : "data:application/octet-stream;base64,"
        }
    ]
}
